<?xml version="1.0" encoding="UTF-8" standalone="no"?>
<!-- Created with Inkscape (http://www.inkscape.org/) -->

<svg
   width="109.80416mm"
   height="54.821644mm"
   viewBox="0 0 109.80416 54.821644"
   version="1.1"
   id="svg896"
   sodipodi:docname="half-minimal-sliced.svg"
   inkscape:version="1.2.2 (732a01da63, 2022-12-09)"
   xmlns:inkscape="http://www.inkscape.org/namespaces/inkscape"
   xmlns:sodipodi="http://sodipodi.sourceforge.net/DTD/sodipodi-0.dtd"
   xmlns="http://www.w3.org/2000/svg"
   xmlns:svg="http://www.w3.org/2000/svg">
  <sodipodi:namedview
     id="namedview898"
     pagecolor="#ffffff"
     bordercolor="#000000"
     borderopacity="0.25"
     inkscape:showpageshadow="2"
     inkscape:pageopacity="0.0"
     inkscape:pagecheckerboard="0"
     inkscape:deskcolor="#d1d1d1"
     inkscape:document-units="mm"
     showgrid="false"
     inkscape:zoom="1.0444209"
     inkscape:cx="518.94787"
     inkscape:cy="340.85875"
     inkscape:window-width="1920"
     inkscape:window-height="1009"
     inkscape:window-x="-8"
     inkscape:window-y="-8"
     inkscape:window-maximized="1"
     inkscape:current-layer="g1119" />
  <defs
     id="defs893" />
  <g
     inkscape:label="Layer 1"
     inkscape:groupmode="layer"
     id="layer1"
     transform="translate(-5.2091917,-2.8621025)">
    <g
       id="g1119">
      <g
         id="g1133"
         transform="matrix(0.84730069,0,0,0.84730069,-144.23251,-77.050463)">
        <path
           class="st0"
           d="m 242.89012,144.63804 c -0.0265,-0.13229 -0.37042,-0.18521 -0.9525,-0.18521 h -0.89959 l -7.77875,-14.02291 c -3.175,-5.715 -5.15937,-9.31334 -6.37645,-11.53584 -0.10584,0.23813 -0.21167,0.34396 -0.34396,0.3175 2.01083,3.59834 13.41437,24.07709 14.04937,25.26771 0.0529,0.0794 0.0529,0.13229 0.0529,0.21167 h 2.2225 c 0.0265,-0.0529 0.0265,-0.0529 0.0265,-0.0529 z"
           id="path4"
           style="fill:#113d66;stroke:#1d1d1b;stroke-width:0.264583;stroke-miterlimit:10" />
        <path
           class="st1"
           d="m 305.96678,158.71388 c -0.18521,-35.58646 -29.10416,-64.399587 -64.74354,-64.399587 -35.63937,0 -64.55833,28.813127 -64.77,64.399587 z"
           id="path6"
           style="fill:#4dbeee;stroke-width:0.264583" />
        <path
           class="st2"
           d="m 278.79408,157.70846 c -0.4498,-20.21417 -16.98626,-36.45958 -37.30625,-36.45958 -20.32,0 -36.85646,16.24541 -37.2798,36.45958 z"
           id="path8"
           style="fill:#f49519;stroke-width:0.264583" />
        <path
           class="st3"
           d="m 195.42387,147.78658 c 1.74625,1.48167 3.91583,3.65125 5.82083,6.64105 1.00542,1.56104 1.77271,3.06916 2.32833,4.41854 4.04813,-0.0529 10.08063,-0.10584 17.48896,-0.21167 2.93688,-0.0265 7.99042,-0.58208 11.93271,-0.18521 1.13771,0.13229 2.64583,0.34396 4.81542,0.3175 1.13771,-0.0265 1.93146,-0.10583 3.46604,-0.0265 0.79375,0.0529 1.27,0.10584 2.24896,0.1323 1.29646,0.0264 2.24896,0 2.46062,-0.0265 1.42875,-0.0529 10.82146,-0.0794 33.68146,0 -0.15875,-2.51354 -0.0794,-6.08542 0.92604,-10.13354 0.74084,-3.01625 1.82563,-5.47688 2.80458,-7.32896 -6.87916,1.69333 -12.93812,2.88396 -17.83291,3.73062 -7.99042,1.40229 -14.26104,2.11667 -18.0975,2.54 -0.82021,0.10584 -4.7625,0.52917 -10.00125,0.97896 -4.20688,0.37042 -6.32354,0.55563 -8.96938,0.68792 -6.0325,0.29104 -11.66812,0.26458 -16.77458,0 -2.09021,0 -4.28625,-0.0529 -6.64104,-0.23813 -3.51896,-0.26458 -6.74688,-0.74083 -9.65729,-1.29646 z"
           id="path10"
           style="fill:#113d67;stroke:#1d1d1b;stroke-width:0.264583;stroke-miterlimit:10" />
        <path
           class="st3"
           d="m 246.19741,132.09679 c -0.10583,-0.0265 -0.42333,0.18521 -12.75292,-12.14437 -5.63562,-5.63563 -10.34521,-10.39813 -11.53583,-11.64167 -0.82021,-0.68792 -1.53458,-1.50812 -2.30188,-2.24896 -0.13229,-0.13229 -0.9525,-0.89958 -1.05833,-1.00541 -0.84667,-0.79375 -0.9525,-0.84667 -1.69333,-0.84667 -0.68792,0 -0.87313,0.0794 -1.37584,0.52917 -0.47625,0.44979 -0.58208,0.66145 -0.635,1.29645 -0.0529,0.68792 -0.0265,0.84667 0.42334,1.42875 l 0.50271,0.68792 v 17.56833 l -0.60855,0.50271 c -0.55562,0.50271 -0.58208,0.52917 -0.52916,1.53459 0.0265,0.42333 0.0265,0.68791 -0.0265,0.87312 h 2.83104 c -0.0265,-0.15875 -0.0265,-0.39687 0,-0.76729 0.10583,-1.00542 -0.15875,-1.61396 -0.74083,-1.79917 -0.3175,-0.10583 -0.3175,-0.21166 -0.3175,-8.73125 v -8.62541 l 23.70666,23.70666 c 2.40771,0.0794 4.78896,0.15875 7.19667,0.23813 -0.26458,-0.21167 -0.635,-0.42334 -1.08479,-0.55563 z m -10.05417,-8.41375 c 0.0265,-0.10583 2.35479,2.27542 2.24896,2.24896 -0.10583,-0.0265 -0.55562,-0.15875 -1.03187,-0.26458 l -0.87313,-0.18521 -0.18521,-0.87313 c -0.13229,-0.5027 -0.21166,-0.92604 -0.15875,-0.92604 z M 232.6772,120.217 c 0.15875,0.0265 1.95792,1.87854 2.38125,2.27542 -0.39687,-0.10584 -1.95792,-0.44979 -2.06375,-0.50271 -0.0265,0 -0.39687,-1.77271 -0.3175,-1.77271 z m -16.03375,7.22313 c -0.0265,0.29104 -0.15875,0.37041 -0.55562,0.42333 -0.4498,0.0529 -0.52917,-0.0265 -0.60855,-0.37042 -0.0529,-0.23812 -0.0265,-0.50271 0.10584,-0.635 0.39687,-0.52916 1.16416,-0.10583 1.05833,0.58209 z m -0.82021,-22.11917 c 0.76729,-0.92604 2.16959,-0.47625 2.35479,0.74083 0.0529,0.3175 0.15875,0.84667 0.23813,1.19063 l 0.13229,0.60854 -0.79375,-0.10583 c -0.44979,-0.0529 -1.05833,-0.18521 -1.32292,-0.26459 -1.05833,-0.3175 -1.32291,-1.32291 -0.60854,-2.16958 z m 3.175,4.84187 c 0.0265,0.3175 -2.48708,-2.16958 -2.16958,-2.16958 0.13229,0.0265 0.58208,0.10583 1.00542,0.21167 0.76729,0.18521 0.79375,0.21166 1.00541,0.9525 0.10584,0.44979 0.18521,0.89958 0.15875,1.00541 z m -0.23812,-3.20145 c -0.10584,-0.4498 -0.15875,-0.79375 -0.13229,-0.82021 0.0265,-0.0265 0.55562,0.50271 1.21708,1.16416 0.68792,0.68792 1.03187,1.16417 0.84667,1.11125 -0.15875,-0.0529 -0.58209,-0.13229 -0.92605,-0.21166 -0.68791,-0.10584 -0.74083,-0.18521 -1.00541,-1.24354 z m 0.44979,1.79916 c -0.0529,-0.3175 1.69333,0.10584 2.27542,0.26459 0.0794,0.37041 0.635,2.35479 0.3175,2.27541 -0.50271,0 -1.98438,-0.37041 -2.09021,-0.52916 -0.13229,-0.15875 -0.50271,-1.66688 -0.50271,-2.01084 z m 3.25437,4.86834 c 0.0265,0.3175 -2.48708,-2.16959 -2.16958,-2.16959 0.13229,0.0265 0.58208,0.10584 1.00542,0.21167 0.76729,0.18521 0.79375,0.21167 1.00541,0.9525 0.10584,0.47625 0.18521,0.89958 0.15875,1.00542 z m -0.21166,-3.20146 c -0.10584,-0.44979 -0.15875,-0.79375 -0.13229,-0.82021 0.0265,-0.0265 0.55562,0.50271 1.21708,1.16417 0.68792,0.68791 1.03187,1.16416 0.84667,1.11125 -0.15875,-0.0529 -0.58209,-0.1323 -0.92605,-0.21167 -0.68791,-0.10583 -0.76729,-0.18521 -1.00541,-1.24354 z m 0.42333,1.85208 c -0.0794,-0.39687 1.64042,0.0794 2.27542,0.21167 l 0.29104,1.16416 c 0.18521,0.635 0.29104,1.19063 0.26458,1.19063 -0.0529,0.0529 -2.19604,-0.42333 -2.30187,-0.50271 -0.0794,-0.0265 -0.52917,-1.79917 -0.52917,-2.06375 z m 3.28083,4.94771 c 0.0265,0.15875 -2.46062,-2.30188 -2.24895,-2.27542 0.1852,0.0265 0.60854,0.13229 1.37583,0.3175 0.55562,0.13229 0.58208,0.21167 0.76729,1.03188 0.0794,0.47625 0.13229,0.89958 0.10583,0.92604 z m 0.0265,-2.27542 c -0.0265,-0.0529 -0.10583,-0.50271 -0.21166,-1.00541 -0.13229,-0.50271 -0.21167,-0.89959 -0.18521,-0.89959 0.0265,0 0.55562,0.52917 1.19062,1.19063 0.9525,0.9525 1.11125,1.19062 0.79375,1.11125 -0.21166,-0.0529 -0.66145,-0.13229 -1.00541,-0.18521 -0.3175,-0.0529 -0.58209,-0.15875 -0.58209,-0.21167 z m 0.39688,1.85209 c -0.13229,-0.58209 -0.23813,-1.11125 -0.23813,-1.16417 0,-0.15875 0.50271,-0.10583 1.77271,0.23812 0.55563,0.1323 0.58209,0.18521 0.84667,1.27 0.13229,0.635 0.21167,1.16417 0.21167,1.19063 -0.15875,0.0265 -1.87855,-0.37042 -2.32834,-0.44979 z m 3.04271,3.81 c 0,0.29104 -2.46063,-2.24896 -2.24896,-2.19605 0.10583,0 0.37042,0.0529 0.635,0.1323 0.26458,0.0529 0.66146,0.1852 0.87312,0.21166 0.34396,0.0794 0.4498,0.21167 0.60855,0.87313 0.10583,0.44979 0.1852,0.89958 0.13229,0.97896 z m -0.13229,-2.9898 c -0.10584,-0.5027 -0.21167,-0.92604 -0.26459,-1.00541 -0.15875,-0.29104 0.13229,-0.0265 1.21709,1.08479 0.66145,0.635 1.08479,1.19062 1.00541,1.19062 -0.0794,0 -0.52916,-0.0794 -0.97896,-0.1852 l -0.79375,-0.18521 z m 0.66145,2.93688 c -0.10583,-0.44979 -0.21166,-0.97896 -0.26458,-1.19063 -0.0794,-0.26458 -0.0265,-0.34395 0.18521,-0.3175 0.3175,0.0265 2.01083,0.4498 2.09021,0.52917 0.10583,0.10583 0.52916,2.14313 0.47625,2.2225 -0.15875,0.0794 -1.85209,-0.34396 -2.27542,-0.44979 z m 3.09563,3.83646 c -0.0265,0 -0.55563,-0.52917 -1.21708,-1.19063 -1.21709,-1.24354 -1.21709,-1.29646 0.10583,-1.00541 0.60854,0.13229 0.68792,0.21166 0.82021,0.71437 0.26458,1.05833 0.34396,1.48167 0.29104,1.48167 z m 0.34396,-0.50271 c -0.10584,-0.52917 -0.21167,-1.03188 -0.26459,-1.16417 -0.0529,-0.13229 0.0265,-0.21166 0.1323,-0.21166 0.3175,0.0265 2.0902,0.44979 2.16958,0.52916 0.10583,0.10584 0.52917,2.14313 0.47625,2.2225 -0.18521,0.0794 -1.85208,-0.34396 -2.30188,-0.44979 z m 3.12208,3.99521 c -0.0265,0 -0.55562,-0.52917 -1.21708,-1.19063 -1.21709,-1.24354 -1.21709,-1.29646 0.10583,-1.00541 0.60854,0.13229 0.68792,0.21166 0.82021,0.71437 0.26458,1.03188 0.34396,1.48167 0.29104,1.48167 z m 0.37042,-0.52917 c -0.10584,-0.52917 -0.21167,-1.03187 -0.26459,-1.16417 -0.10583,-0.26458 0.0529,-0.26458 1.37584,0.0529 l 1.00541,0.26458 0.23813,1.0848 c 0.10583,0.58208 0.18521,1.11125 0.13229,1.16416 -0.0529,0.0529 -0.58208,-0.0265 -1.19062,-0.18521 l -1.11125,-0.26458 z m 3.09562,3.91583 c -0.0265,0.0265 -0.55562,-0.47625 -1.21708,-1.11125 -1.24354,-1.24354 -1.21708,-1.34937 0.13229,-0.9525 0.68792,0.18521 0.71438,0.21167 0.92604,1.11125 0.13229,0.50271 0.18521,0.9525 0.15875,0.9525 z m 0,-2.32833 c -0.0265,-0.0265 -0.13229,-0.42333 -0.21166,-0.89958 -0.10584,-0.47625 -0.18521,-0.87313 -0.1323,-0.89959 0.0529,-0.0264 0.58209,0.50271 1.21709,1.13771 0.66146,0.68792 1.03187,1.16417 0.84666,1.11125 -0.23812,-0.0794 -1.56104,-0.3175 -1.71979,-0.44979 z m 1.905,3.04271 c -0.55562,0 -1.08479,-0.0529 -1.16416,-0.13229 -0.1323,0.0265 -0.71438,-2.35479 -0.55563,-2.38125 0.0529,0 0.58208,0.13229 1.19063,0.26458 1.19062,0.29104 1.16416,0.26458 1.42875,1.64042 l 0.10583,0.60854 z m 2.01084,-0.0794 c -0.47625,0 -0.58209,-0.0529 -0.66146,-0.42333 -0.0529,-0.21167 -0.13229,-0.52917 -0.18521,-0.68792 -0.10583,-0.37041 -0.0265,-0.34395 0.71437,0.42334 l 0.66146,0.68791 z"
           id="path12"
           style="fill:#113d67;stroke:#1d1d1b;stroke-width:0.264583;stroke-miterlimit:10" />
        <path
           class="st3"
           d="m 257.91845,133.12867 -17.88583,-0.68792 0.26458,2.51354 0.9525,8.54604 -4.55083,1.64042 0.92604,3.04271 c 7.3025,-0.71438 11.45646,-1.19063 20.02896,-2.38125 -0.74084,-3.96875 -0.50271,-9.41917 0.26458,-12.67354 z m -1.29646,6.11187 c -1.48167,0 -3.12208,0.0794 -4.86833,0.23813 -1.45521,0.13229 -2.83104,0.34396 -4.10104,0.58208 l -0.84667,-5.715 10.13354,0.42333 c -0.15875,0.60855 -0.29104,1.32292 -0.37042,2.19605 -0.0794,0.87312 -0.0265,1.64041 0.0529,2.27541 z"
           id="path14"
           style="fill:#113d67;stroke:#1d1d1b;stroke-width:0.264583;stroke-miterlimit:10" />
        <line
           class="st4"
           x1="214.47386"
           y1="131.72638"
           x2="212.72762"
           y2="134.05472"
           id="line16"
           style="fill:none;stroke:#1d1d1b;stroke-width:0.264583;stroke-miterlimit:10" />
        <line
           class="st4"
           x1="219.26282"
           y1="133.81659"
           x2="217.51657"
           y2="131.48827"
           id="line18"
           style="fill:none;stroke:#1d1d1b;stroke-width:0.264583;stroke-miterlimit:10" />
        <circle
           class="st3"
           cx="216.06137"
           cy="130.27118"
           r="2.3283334"
           id="circle20"
           style="fill:#113d67;stroke:#1d1d1b;stroke-width:0.264583;stroke-miterlimit:10" />
        <path
           class="st5"
           d="m 231.59241,158.10533 c -19.18229,-1.69333 -27.04042,-6.50875 -46.32854,-8.59895 -2.69875,-0.29105 -5.3975,-0.47625 -8.04334,-0.58209 -0.52916,3.28084 -0.8202,6.6675 -0.84666,10.08063 h 129.48708 c -0.0265,-4.63021 -0.52917,-9.12813 -1.48167,-13.49375 -10.37166,4.02166 -19.47333,6.58812 -26.48479,8.28146 -9.76312,2.32833 -21.66937,5.08 -37.67666,4.7625 -1.87855,-0.0265 -4.86834,-0.1323 -8.62542,-0.4498 z"
           id="path22"
           style="fill:#448ecc;stroke-width:0.264583" />
        <rect
           x="208.46782"
           y="133.12868"
           class="st6"
           width="15.187083"
           height="10.742083"
           id="rect24"
           style="fill:#103d65;stroke:#1d1d1b;stroke-width:0.264583;stroke-miterlimit:10" />
        <path
           class="st7"
           d="m 215.45283,134.00179 -3.73063,3.73063 c -0.18521,0.18521 -0.18521,0.47625 0,0.66146 l 4.68313,4.68312 c 0.1852,0.18521 0.47625,0.18521 0.66145,0 l 3.73063,-3.70417 c 0.18521,-0.1852 0.18521,-0.47625 0,-0.66145 l -4.68313,-4.68313 c -0.1852,-0.21167 -0.5027,-0.21167 -0.66145,-0.0265 z m -2.91042,4.07459 3.36021,-3.36021 2.24896,2.24896 -3.38667,3.33375 z m 5.21229,2.64583 -0.39687,0.39687 0.39687,0.39688 -0.44979,0.44979 -0.39688,-0.39687 -0.39687,0.39687 -0.44979,-0.44979 0.39687,-0.39688 -0.39687,-0.39687 0.44979,-0.44979 0.39687,0.39687 0.39688,-0.39687 z m 0.97896,-0.79375 c -0.18521,0.18521 -0.47625,0.18521 -0.635,0 -0.15875,-0.18521 -0.18521,-0.47625 0,-0.635 0.18521,-0.15875 0.47625,-0.18521 0.635,0 0.15875,0.15875 0.15875,0.44979 0,0.635 z m 0.89958,-0.92604 c -0.18521,0.18521 -0.47625,0.18521 -0.635,0 -0.15875,-0.18521 -0.18521,-0.47625 0,-0.635 0.18521,-0.15875 0.47625,-0.18521 0.635,0 0.18521,0.18521 0.18521,0.44979 0,0.635 z"
           id="path26"
           style="fill:#4fbeee;stroke-width:0.264583" />
      </g>
    </g>
  </g>
</svg>