<?xml version="1.0" standalone="no"?>
<!DOCTYPE svg PUBLIC "-//W3C//DTD SVG 20010904//EN"
 "http://www.w3.org/TR/2001/REC-SVG-20010904/DTD/svg10.dtd">
<svg version="1.0" xmlns="http://www.w3.org/2000/svg"
 width="843.000000pt" height="843.000000pt" viewBox="0 0 843.000000 843.000000"
 preserveAspectRatio="xMidYMid meet">
<metadata>
Created by potrace 1.14, written by Peter Selinger 2001-2017
</metadata>
<g transform="translate(0.000000,843.000000) scale(0.100000,-0.100000)"
fill="#000000" stroke="none">
<path d="M2510 7454 c-40 -44 -42 -48 -38 -98 3 -37 12 -63 31 -88 l27 -35 0
-568 0 -568 -37 -32 c-36 -31 -38 -35 -38 -96 0 -52 -5 -70 -24 -96 -30 -41
-39 -119 -18 -161 14 -29 13 -32 -11 -66 -23 -33 -29 -36 -74 -36 l-48 0 0
-194 0 -193 68 -6 c87 -9 342 -9 421 -1 l61 7 0 193 0 194 -42 0 c-37 1 -47 6
-70 36 -24 32 -25 37 -12 62 27 51 11 147 -29 181 -12 9 -17 29 -17 68 0 60
-11 89 -44 115 -21 17 -21 19 -24 560 l-2 543 323 -323 324 -324 95 -171 c76
-137 292 -525 515 -927 221 -397 284 -512 281 -514 -1 -2 -54 -20 -115 -42
-77 -26 -113 -44 -113 -54 0 -8 13 -55 28 -105 l28 -90 80 3 c43 1 135 9 204
17 69 8 172 19 230 25 127 14 345 42 679 86 l133 18 -6 35 c-3 20 -11 102 -18
184 -12 159 -1 406 27 550 7 39 13 72 12 73 -1 1 -156 7 -344 14 l-342 12 -56
30 c-89 48 -228 180 -1005 957 -404 404 -768 765 -808 803 -73 68 -73 68 -131
68 -57 0 -60 -1 -101 -46z m147 -29 c14 -10 26 -34 33 -72 7 -32 15 -64 18
-72 4 -12 -5 -13 -52 -7 -64 7 -110 27 -120 51 -12 32 -6 62 19 89 27 30 69
34 102 11z m138 -135 l49 -50 -32 0 c-22 0 -36 7 -46 23 -13 21 -30 77 -23 77
1 0 25 -22 52 -50z m-107 -71 c25 -9 34 -19 43 -51 5 -22 9 -42 7 -44 -2 -2
-29 21 -58 51 -55 56 -53 66 8 44z m206 -45 c11 -4 36 -92 36 -126 0 -10 -41
-4 -96 13 -27 8 -34 17 -43 54 -19 76 -18 78 39 71 28 -4 56 -9 64 -12z m171
-162 c-7 -7 -63 9 -73 21 -5 7 -13 28 -17 47 l-7 35 51 -49 c28 -28 49 -52 46
-54z m-148 -23 c24 -8 33 -19 41 -50 5 -21 7 -39 3 -39 -4 0 -29 23 -56 50
-50 51 -47 60 12 39z m193 -43 c18 -8 27 -25 38 -69 8 -32 12 -60 10 -63 -3
-2 -32 1 -64 8 -63 14 -70 23 -87 116 l-7 32 43 -6 c23 -4 53 -12 67 -18z
m145 -117 l50 -51 -40 7 c-22 3 -43 10 -46 13 -7 8 -22 82 -17 82 2 0 26 -23
53 -51z m-84 -75 c9 -5 24 -73 17 -79 -2 -3 -28 20 -58 50 l-53 54 43 -10 c24
-5 47 -12 51 -15z m129 -25 c56 -12 70 -30 84 -111 l7 -38 -33 7 c-91 17 -101
24 -114 83 -19 82 -25 76 56 59z m226 -177 c-7 -6 -86 18 -86 27 0 5 -3 24 -6
42 l-7 34 51 -49 c29 -28 50 -51 48 -54z m-154 -17 c19 -5 30 -17 38 -41 19
-57 7 -57 -50 2 -35 36 -48 54 -35 51 11 -4 32 -9 47 -12z m197 -48 c19 -9 28
-25 37 -67 7 -30 13 -57 14 -59 0 -6 -103 10 -120 19 -14 7 -40 87 -40 122 0
13 72 3 109 -15z m188 -163 c-4 -4 -78 13 -83 19 -3 2 -7 22 -11 43 l-6 39 52
-49 c28 -28 49 -51 48 -52z m369 -795 c8 -68 19 -166 24 -216 6 -51 14 -135
20 -185 5 -51 12 -114 16 -140 13 -90 -8 -64 -151 197 -15 28 -95 172 -178
320 -138 249 -241 435 -426 770 l-72 130 376 -376 376 -375 15 -125z m-534
781 c32 -9 39 -16 48 -51 6 -23 10 -43 8 -45 -2 -2 -29 21 -58 51 -57 58 -57
61 2 45z m201 -49 c21 -8 28 -20 37 -66 6 -31 10 -59 7 -61 -2 -3 -31 1 -63 8
l-58 13 -13 50 c-21 80 -19 84 26 74 21 -5 50 -13 64 -18z m183 -159 c-2 -2
-20 0 -40 3 -28 6 -37 13 -42 34 -3 14 -8 35 -11 46 -4 14 11 4 46 -29 28 -28
49 -51 47 -54z m-149 -23 c25 -8 33 -19 41 -52 6 -23 10 -43 8 -44 -1 -1 -27
22 -56 52 -55 56 -53 65 7 44z m184 -41 c34 -10 37 -14 48 -66 15 -75 15 -75
-16 -68 -112 27 -105 22 -122 109 l-9 48 32 -6 c17 -4 47 -11 67 -17z m-1426
-48 c0 -18 -6 -26 -23 -28 -13 -2 -25 3 -28 12 -10 26 4 48 28 44 17 -2 23
-10 23 -28z m1615 -113 c0 -9 -61 1 -71 12 -4 3 -10 24 -14 46 l-7 40 46 -45
c25 -24 46 -48 46 -53z m-118 -35 c6 -6 29 -92 24 -92 -1 0 -26 25 -56 56
l-55 56 40 -7 c22 -3 43 -10 47 -13z m136 -27 c59 -18 60 -19 71 -79 l8 -46
-41 0 c-84 0 -85 2 -110 113 -8 32 -1 33 72 12z m157 -113 c-9 -9 -35 8 -35
24 0 16 2 16 20 -1 11 -10 18 -20 15 -23z m-1900 -62 c41 -27 128 -27 174 1
18 11 34 19 35 17 1 -2 10 -13 20 -25 l19 -23 -162 0 -162 0 18 25 c22 30 21
30 58 5z m183 -317 l-73 -73 -87 87 -88 88 72 72 73 73 87 -87 88 -88 -72 -72z
m2319 180 c117 -3 216 -9 221 -12 6 -4 6 -26 1 -56 -4 -27 -8 -86 -8 -130 l-1
-81 -182 -12 c-101 -7 -225 -19 -277 -27 -52 -8 -97 -12 -100 -9 -6 5 -50 292
-51 328 0 18 6 19 93 12 50 -3 187 -9 304 -13z"/>
<path d="M2495 5490 l-59 -60 39 -40 c21 -22 42 -40 46 -40 10 0 119 107 119
118 0 8 -72 82 -81 82 -2 0 -31 -27 -64 -60z"/>
<path d="M2663 5410 c-3 -11 -12 -20 -19 -20 -16 0 -19 -26 -3 -35 14 -9 62
44 55 61 -8 21 -27 17 -33 -6z"/>
<path d="M2582 5349 c-36 -14 -27 -54 12 -54 23 0 30 5 31 23 2 30 -14 42 -43
31z"/>
<path d="M6705 5024 c-409 -96 -874 -185 -1305 -250 -177 -27 -235 -35 -430
-59 -263 -33 -359 -44 -470 -55 -63 -6 -151 -15 -195 -20 -112 -14 -412 -39
-760 -66 -578 -44 -1641 -21 -2080 45 -33 5 -102 17 -153 26 -51 9 -98 15
-104 13 -5 -2 20 -30 58 -63 153 -135 328 -369 426 -571 l52 -107 251 6 c862
22 2426 30 3415 18 569 -7 1095 -15 1168 -18 l132 -6 0 129 c0 335 81 688 220
964 17 33 30 62 30 65 0 8 -11 6 -255 -51z"/>
<path d="M2588 2276 c-20 -7 -47 -9 -68 -4 -77 16 -180 -13 -228 -65 -28 -29
-232 -482 -232 -514 0 -31 53 -71 106 -79 115 -17 240 18 290 80 23 28 145
287 175 371 11 29 19 36 48 41 50 9 80 30 96 67 8 18 14 27 15 21 0 -6 -56
-137 -125 -292 -69 -155 -125 -284 -125 -287 0 -3 35 -5 78 -5 l79 0 73 165
c64 142 77 165 96 165 13 0 30 -7 38 -16 20 -20 14 -45 -36 -148 -43 -91 -47
-117 -18 -146 40 -40 158 -12 250 61 61 48 74 70 56 95 -13 17 -16 16 -55 -19
-35 -32 -78 -57 -97 -57 -11 0 -1 35 31 101 19 41 35 84 35 96 0 25 -32 63
-52 63 -7 0 1 7 18 16 55 27 102 73 128 126 45 90 30 142 -44 159 -44 10 -146
-3 -163 -20 -6 -6 -18 -5 -31 3 -27 17 -121 27 -166 18 -42 -9 -56 -50 -21
-59 27 -7 27 -19 -1 -27 -47 -12 -54 -8 -50 29 7 59 -34 83 -100 61z m32 -71
c0 -8 -4 -15 -10 -15 -5 0 -10 7 -10 15 0 8 5 15 10 15 6 0 10 -7 10 -15z
m408 -11 c11 -20 0 -75 -22 -109 -27 -42 -146 -116 -133 -83 28 73 74 167 90
186 24 26 52 29 65 6z m-530 -6 c20 -20 14 -44 -37 -161 -113 -258 -138 -306
-165 -313 -33 -8 -56 1 -56 22 0 23 177 424 197 447 19 20 44 22 61 5z"/>
<path d="M1763 2273 c-49 -10 -56 -63 -8 -63 14 0 28 -7 31 -15 5 -12 -137
-348 -226 -537 -10 -20 -15 -39 -12 -42 3 -4 39 -6 79 -6 l74 0 31 70 31 70
62 0 c150 0 212 51 303 255 87 192 92 230 31 255 -40 17 -138 17 -178 0 -23
-9 -38 -10 -58 -2 -33 13 -129 22 -160 15z m277 -77 c9 -12 3 -34 -30 -113
-64 -148 -107 -230 -132 -247 -24 -17 -78 -22 -78 -8 0 23 154 349 172 365 25
21 51 22 68 3z"/>
<path d="M3975 2271 c-23 -5 -31 -12 -33 -34 -3 -24 0 -27 27 -27 16 0 33 -4
36 -10 3 -5 -30 -90 -74 -187 -116 -259 -171 -386 -171 -395 0 -4 34 -8 76 -8
l75 0 43 93 c24 50 74 163 112 250 51 118 79 169 108 198 36 36 80 58 92 46 3
-2 -51 -132 -120 -287 -70 -155 -126 -286 -126 -291 0 -5 33 -9 73 -9 l73 0
114 256 c102 229 119 260 158 295 41 36 82 51 82 31 0 -5 -47 -116 -105 -246
-58 -131 -108 -251 -112 -266 -4 -21 1 -34 17 -50 19 -19 30 -22 71 -18 27 3
76 18 109 35 51 25 60 27 60 13 0 -65 139 -65 231 0 24 18 29 19 29 6 0 -27
38 -56 73 -56 37 1 130 37 174 68 l30 21 12 -25 c18 -40 92 -67 166 -62 152
13 277 129 279 260 1 30 5 48 13 48 13 0 43 38 43 55 0 6 -16 9 -38 7 -33 -3
-40 0 -50 23 -7 14 -12 41 -12 58 l0 33 63 -4 c60 -4 66 -2 100 28 40 35 56
85 38 119 -24 43 -142 47 -220 6 -28 -14 -33 -13 -67 7 -72 42 -204 21 -204
-33 0 -18 4 -20 28 -14 67 17 97 16 131 -5 30 -19 32 -23 18 -38 -29 -33 -42
-68 -47 -126 l-5 -58 -47 -18 c-71 -27 -139 -82 -173 -140 -29 -50 -102 -110
-132 -110 -15 0 -11 24 12 70 21 41 215 479 215 485 0 3 -31 5 -69 5 -61 0
-70 -3 -76 -20 -6 -19 -7 -19 -36 2 -36 27 -138 29 -185 5 -65 -34 -87 -71
-206 -347 -27 -64 -63 -129 -80 -147 -31 -32 -84 -60 -94 -50 -3 3 38 104 91
224 101 227 116 275 93 306 -32 42 -159 41 -213 -1 l-27 -21 -22 26 c-21 24
-30 27 -88 27 -47 0 -74 -6 -99 -20 -33 -20 -36 -20 -59 -3 -27 19 -127 31
-175 20z m1023 -73 c23 -23 12 -62 -69 -244 -66 -148 -89 -191 -120 -219 -41
-37 -79 -46 -79 -19 0 8 28 77 61 152 34 75 79 178 101 227 22 50 44 96 50
103 13 15 40 16 56 0z m642 -13 c0 -21 -38 -38 -68 -30 l-27 7 24 19 c28 23
71 25 71 4z m-253 -348 c11 -97 -96 -197 -151 -141 -40 40 -1 130 76 174 31
17 56 26 61 21 5 -5 12 -29 14 -54z"/>
<path d="M6401 2269 c-118 -20 -183 -84 -189 -185 -4 -56 -2 -65 21 -88 l25
-25 -32 -12 c-42 -18 -124 -95 -146 -139 -31 -61 -43 -119 -30 -150 18 -43 52
-55 154 -55 78 0 99 4 148 27 67 31 120 70 141 102 12 18 13 25 1 40 -12 17
-16 16 -60 -22 -68 -61 -175 -96 -228 -76 -9 3 -16 18 -16 32 0 68 88 174 175
213 48 21 65 48 39 62 -42 24 -56 49 -51 88 7 51 43 108 73 115 33 8 40 0 25
-32 -6 -15 -10 -28 -9 -30 8 -7 150 51 155 63 8 19 -5 60 -20 66 -31 12 -125
15 -176 6z"/>
<path d="M6675 2271 c-23 -5 -31 -12 -33 -34 -3 -24 0 -27 27 -27 16 0 33 -4
36 -10 3 -5 -51 -137 -120 -292 -69 -156 -125 -286 -125 -290 0 -5 35 -8 78
-8 l77 0 72 163 c57 128 76 163 93 165 29 5 50 -15 50 -47 0 -15 -16 -60 -36
-100 -47 -95 -53 -132 -25 -160 28 -28 76 -27 152 4 68 27 144 85 154 115 3
10 1 29 -5 40 -11 21 -11 21 -31 -4 -24 -30 -66 -61 -96 -70 -33 -10 -30 19 7
92 46 91 48 114 11 144 l-30 26 29 12 c38 16 117 100 136 145 20 49 17 80 -10
112 -22 26 -29 27 -99 26 -41 0 -84 -6 -96 -13 -16 -8 -30 -9 -49 -2 -36 14
-130 22 -167 13z m273 -84 c7 -35 -9 -86 -35 -117 -26 -31 -123 -88 -123 -72
0 19 73 168 93 190 25 26 60 26 65 -1z"/>
<path d="M3222 2243 c3 -27 5 -28 71 -31 58 -3 67 -5 67 -22 0 -10 -54 -142
-120 -294 -66 -151 -120 -278 -120 -281 0 -3 37 -5 82 -3 l82 3 118 275 c65
151 118 285 118 298 0 20 5 22 51 22 54 0 52 2 32 -47 -4 -9 6 -13 29 -13 27
0 37 5 46 24 6 13 25 40 42 60 l32 36 -267 0 -266 0 3 -27z"/>
<path d="M5732 2243 c3 -27 6 -28 63 -31 33 -2 64 -7 69 -12 8 -8 -22 -89 -84
-225 -63 -139 -150 -344 -150 -354 0 -7 28 -11 78 -11 l79 0 111 258 c60 141
115 276 122 300 l11 42 50 0 50 0 -16 -30 -16 -30 35 0 c27 0 38 6 47 23 6 12
27 39 47 60 l36 37 -268 0 -267 0 3 -27z"/>
</g>
</svg>
